# xmcd
#
# Track frame offsets:
#	150
#	15979
#	34717
#	53676
#	69291
#	86541
#	104252
#	121049
#	139499
#	156446
#	172000
#	187129
#	203103
#	223990
#	241670
#	258282
#	275241
#	289830
#	303588
#	316641
#
# Disc length: 4490 seconds
#
# Revision: 1
# Processed by: cddbd v1.5.2PL0 Copyright (c) Steve Scherf et al.
# Submitted via: audiograbber 1.83.01
#
DISCID=22118814
DTITLE=Holly Drummond - Twenty
DYEAR=2014
DGENRE=Pop
TTITLE0=Out Of My Mind
TTITLE1=Diving In
TTITLE2=These Four Walls
TTITLE3=The Hands Of Change (feat Lewis Mokler)
TTITLE4=Girl That You Don't Know
TTITLE5=Fade
TTITLE6=Forbidden
TTITLE7=Let You Go
TTITLE8=Into His Arms
TTITLE9=Starting To Believe
TTITLE10=Like A Fool
TTITLE11=Royalty
TTITLE12=Empty
TTITLE13=Stars
TTITLE14=Will This Ever End?
TTITLE15=Cold Outside
TTITLE16=Save You
TTITLE17=Cloud Nine
TTITLE18=In the Dark (feat Danny Shah)
TTITLE19=Free
EXTD=
EXTT0=
EXTT1=
EXTT2=
EXTT3=
EXTT4=
EXTT5=
EXTT6=
EXTT7=
EXTT8=
EXTT9=
EXTT10=
EXTT11=
EXTT12=
EXTT13=
EXTT14=
EXTT15=
EXTT16=
EXTT17=
EXTT18=
EXTT19=
PLAYORDER=
